<?xml version="1.0" standalone="no"?>
<!DOCTYPE svg PUBLIC "-//W3C//DTD SVG 20010904//EN"
 "http://www.w3.org/TR/2001/REC-SVG-20010904/DTD/svg10.dtd">
<svg version="1.0" xmlns="http://www.w3.org/2000/svg"
 width="512.000000pt" height="512.000000pt" viewBox="0 0 512.000000 512.000000"
 preserveAspectRatio="xMidYMid meet">

<g transform="translate(0.000000,512.000000) scale(0.100000,-0.100000)"
fill="#000000" stroke="none">
<path d="M464 4946 c-98 -31 -179 -117 -211 -225 -19 -68 -13 -182 14 -261 19
-55 19 -55 -1 -90 -17 -29 -21 -51 -21 -125 1 -77 5 -97 27 -141 40 -75 70
-107 140 -145 57 -30 71 -33 148 -34 78 0 90 3 148 34 72 39 111 81 143 155
l23 51 85 0 c79 0 92 3 149 34 70 38 100 70 140 145 22 43 26 64 26 136 1 78
-2 90 -33 148 -37 69 -81 110 -148 142 -60 28 -147 36 -200 17 l-41 -14 -32
48 c-73 113 -225 166 -356 125z m184 -173 c33 -24 72 -97 72 -136 0 -37 40
-77 78 -77 18 0 46 13 73 35 75 60 150 56 208 -10 57 -65 53 -155 -8 -216 -39
-39 -91 -56 -135 -45 -13 3 -43 22 -66 41 -48 40 -86 45 -121 16 -21 -17 -25
-30 -29 -110 -6 -97 -18 -124 -74 -165 -20 -16 -42 -21 -86 -21 -93 0 -150 54
-158 149 -4 53 -3 56 37 95 51 50 54 85 11 134 -31 36 -49 96 -50 164 0 74 34
131 95 159 40 19 119 12 153 -13z"/>
<path d="M4500 4951 c-45 -14 -84 -39 -113 -69 -28 -29 -29 -29 -70 -15 -92
33 -224 -3 -302 -82 -164 -164 -101 -447 116 -525 27 -10 39 -22 49 -49 78
-217 361 -280 525 -116 77 76 112 198 86 300 -12 46 -11 47 27 91 69 78 80
190 27 293 -36 71 -67 104 -134 140 -64 34 -161 49 -211 32z m124 -165 c44
-18 87 -76 93 -126 7 -51 -19 -83 -82 -99 -85 -21 -100 -88 -34 -152 40 -39
41 -42 37 -95 -8 -95 -65 -149 -158 -149 -90 0 -144 49 -159 145 -10 61 -36
90 -82 90 -135 0 -207 163 -118 265 59 67 147 71 212 10 26 -24 46 -35 67 -35
39 0 80 39 80 77 1 67 69 100 144 69z"/>
<path d="M2815 4790 c-154 -33 -245 -131 -245 -263 0 -58 0 -59 -59 -115 -32
-31 -63 -65 -68 -75 -7 -13 -32 -23 -84 -33 -103 -19 -207 -71 -271 -136 -30
-29 -61 -63 -69 -76 l-14 -23 -56 25 c-82 38 -161 43 -247 17 -159 -48 -281
-176 -307 -324 l-7 -37 -62 6 c-127 13 -262 -46 -349 -152 -61 -75 -87 -145
-87 -233 0 -59 -5 -77 -39 -143 -24 -46 -42 -97 -46 -129 -7 -59 -5 -82 195
-1823 66 -572 120 -1046 120 -1053 0 -8 11 -25 25 -38 l24 -25 1311 0 1311 0
24 25 c14 13 25 30 25 38 0 8 56 504 125 1102 120 1039 129 1104 157 1105 3 0
21 12 39 27 36 30 79 114 79 154 0 26 1 27 83 31 171 9 247 99 234 277 -13
174 -129 294 -268 278 -26 -3 -62 -13 -80 -22 -31 -16 -32 -16 -60 11 -56 53
-79 106 -79 177 0 189 -115 328 -304 367 -48 10 -143 8 -193 -3 -4 -1 -11 18
-14 43 -13 84 -48 158 -106 220 l-55 60 20 48 c31 74 36 124 17 188 -21 74
-98 154 -173 180 l-52 19 0 56 c0 72 -31 132 -93 180 -83 62 -205 90 -302 69z
m130 -161 c22 -6 55 -22 73 -35 26 -20 32 -32 32 -62 0 -21 -9 -54 -20 -75
-27 -50 -25 -83 5 -113 24 -24 31 -25 84 -19 64 7 99 -4 137 -47 34 -36 37
-63 16 -111 -26 -59 -79 -117 -127 -138 -74 -34 -176 -21 -242 31 -34 27 -75
25 -110 -4 -64 -53 -119 -60 -173 -23 -73 49 -91 114 -55 190 31 66 68 97 114
97 78 0 117 74 71 133 -13 16 -20 40 -20 69 0 52 25 81 87 103 47 17 76 18
128 4z m-555 -531 c40 -189 248 -297 423 -220 32 14 49 17 62 9 34 -18 120
-37 175 -37 67 0 144 20 199 51 l41 23 28 -21 c15 -11 40 -46 56 -77 27 -52
30 -66 30 -163 1 -98 3 -106 25 -124 31 -26 58 -24 127 8 80 37 178 38 247 4
49 -24 97 -80 97 -114 0 -15 -5 -17 -37 -10 -21 4 -74 8 -118 7 -69 0 -91 -5
-147 -31 -37 -17 -87 -50 -112 -73 l-46 -43 -46 43 c-25 23 -75 56 -112 73
-61 29 -76 32 -162 32 -86 0 -101 -3 -162 -32 -37 -17 -87 -50 -112 -73 l-46
-43 -46 43 c-25 23 -75 56 -112 73 -61 29 -76 32 -162 32 -86 0 -101 -3 -162
-32 -37 -17 -87 -50 -112 -73 l-46 -43 -46 43 c-25 23 -75 56 -112 73 -61 29
-76 32 -162 32 -86 0 -101 -3 -162 -32 -37 -17 -87 -50 -112 -73 l-46 -43 -46
43 c-98 90 -250 130 -371 97 -29 -8 -53 -11 -53 -8 0 12 43 77 69 104 44 48
99 71 167 72 55 0 67 -4 116 -37 64 -44 99 -48 133 -14 24 24 24 28 18 118 -5
83 -3 99 17 146 39 91 135 156 230 156 66 0 100 -17 163 -78 77 -76 134 -60
163 47 24 84 101 164 189 195 33 11 61 21 62 21 1 1 6 -22 13 -51z m-1083
-842 c53 -27 102 -85 118 -140 10 -34 23 -186 38 -466 l23 -415 -47 -52 c-110
-122 -105 -257 14 -378 l60 -60 41 -712 41 -713 -162 0 c-90 0 -163 2 -163 5
0 3 -56 495 -125 1093 -68 598 -138 1212 -156 1365 -27 240 -30 284 -19 322
21 75 76 134 149 162 45 17 146 11 188 -11z m607 13 c56 -15 131 -90 150 -147
11 -34 17 -115 21 -292 3 -135 8 -274 11 -310 l5 -65 -113 -23 c-62 -13 -165
-40 -228 -62 -63 -21 -116 -38 -117 -36 -1 1 -12 166 -24 366 -24 423 -24 432
54 508 67 66 149 87 241 61z m649 -5 c57 -19 128 -94 146 -154 9 -30 11 -105
6 -288 -3 -136 -8 -269 -11 -297 l-5 -50 -219 0 -219 0 -5 50 c-3 28 -8 162
-11 298 -7 289 -2 316 68 385 70 68 157 88 250 56z m631 5 c58 -16 132 -90
152 -153 15 -47 15 -76 -6 -416 -11 -200 -22 -365 -23 -367 -1 -1 -54 16 -117
37 -63 22 -166 49 -228 62 l-113 23 5 75 c3 41 8 181 11 310 7 273 14 305 79
369 66 65 148 86 240 60z m645 -3 c19 -7 36 -17 38 -22 1 -5 -20 -21 -47 -36
-92 -51 -135 -146 -112 -246 9 -41 8 -48 -21 -94 -66 -105 -43 -246 55 -354
48 -52 129 -104 163 -104 12 0 14 -8 10 -37 -6 -42 -235 -2034 -235 -2045 0
-5 -73 -8 -163 -8 l-162 0 40 709 40 708 61 66 c120 128 125 258 15 380 l-47
52 23 415 c13 228 29 435 35 460 14 55 95 140 148 157 47 15 117 14 159 -1z
m177 -185 c18 -11 40 -32 50 -46 61 -89 94 -95 174 -35 62 46 82 49 115 16 43
-43 60 -162 28 -198 -14 -15 -33 -18 -135 -18 -113 0 -120 -1 -143 -25 -22
-21 -25 -33 -25 -95 0 -62 -3 -74 -25 -95 -30 -31 -85 -33 -135 -7 -47 25
-100 104 -100 149 0 42 15 73 36 73 24 0 64 47 64 74 0 14 -11 46 -25 72 -14
26 -25 57 -25 69 0 24 33 59 70 74 35 14 41 13 76 -8z m-1311 -771 c310 -29
574 -114 685 -221 66 -64 66 -114 0 -178 -230 -223 -986 -301 -1505 -155 -178
50 -344 150 -361 219 -16 64 37 127 161 192 230 119 644 177 1020 143z m-753
-734 c63 -14 127 -26 141 -26 25 0 25 -2 31 -92 3 -51 10 -284 16 -518 5 -234
13 -469 16 -523 l6 -97 -204 2 -203 3 -37 635 c-20 349 -37 649 -37 666 l-1
31 78 -28 c43 -15 130 -39 194 -53z m1290 -606 l-37 -645 -203 -3 -204 -2 6
97 c3 54 10 294 16 533 6 239 13 472 16 518 6 80 7 82 31 82 41 0 248 49 331
78 75 26 77 27 79 7 2 -11 -14 -310 -35 -665z m-570 463 c-1 -48 -7 -272 -12
-498 -6 -226 -13 -456 -16 -512 l-6 -103 -159 0 c-87 0 -159 3 -160 8 -3 35
-35 1188 -33 1192 1 3 89 4 196 3 l193 -1 -3 -89z"/>
</g>
</svg>
