<?xml version="1.0" standalone="no"?>
<!DOCTYPE svg PUBLIC "-//W3C//DTD SVG 20010904//EN"
 "http://www.w3.org/TR/2001/REC-SVG-20010904/DTD/svg10.dtd">
<svg version="1.0" xmlns="http://www.w3.org/2000/svg"
 width="512.000000pt" height="512.000000pt" viewBox="0 0 512.000000 512.000000"
 preserveAspectRatio="xMidYMid meet">

<g transform="translate(0.000000,512.000000) scale(0.100000,-0.100000)"
fill="#000000" stroke="none">
<path d="M3115 4244 c-40 -7 -111 -34 -165 -60 -79 -39 -110 -62 -181 -133
-71 -71 -94 -102 -133 -181 -100 -205 -101 -415 -1 -616 24 -50 65 -114 91
-143 l46 -51 -381 0 -381 0 35 49 c103 144 138 326 95 495 -29 113 -73 190
-160 276 -86 87 -163 131 -276 160 -141 36 -294 18 -427 -52 -81 -42 -203
-164 -245 -245 -106 -203 -90 -449 42 -633 l34 -47 -74 -6 c-146 -11 -266 -92
-331 -223 l-36 -74 -111 0 c-96 0 -118 -3 -161 -24 -103 -49 -135 -112 -135
-276 0 -164 32 -227 135 -276 43 -20 66 -24 157 -24 l107 0 3 -497 3 -498 32
-67 c41 -88 113 -160 201 -201 l67 -32 1296 0 1295 0 76 38 c91 44 146 102
192 197 29 62 31 72 34 213 l4 147 132 0 131 0 292 -244 c161 -134 299 -246
308 -250 44 -16 100 4 121 45 21 42 21 1856 0 1898 -21 41 -77 61 -121 45 -9
-4 -147 -116 -308 -250 l-292 -244 -131 0 -132 0 -4 148 c-3 141 -5 150 -35
215 -21 44 -52 87 -86 121 l-54 52 77 81 c210 217 257 519 124 791 -140 287
-451 439 -769 376z m247 -195 c226 -47 398 -259 398 -489 0 -270 -230 -500
-500 -500 -270 0 -500 230 -500 500 0 225 164 433 383 486 66 16 152 17 219 3z
m-1638 -227 c91 -42 149 -100 194 -190 35 -72 37 -81 37 -172 0 -91 -2 -100
-37 -172 -45 -91 -103 -147 -196 -191 -61 -29 -76 -32 -162 -32 -86 0 -101 3
-162 32 -93 44 -151 100 -196 191 -35 72 -37 81 -37 171 0 87 3 102 32 163 40
85 97 147 172 186 78 42 122 52 213 48 61 -3 92 -11 142 -34z m1798 -974 c50
-15 111 -76 126 -126 17 -56 17 -1475 0 -1523 -18 -54 -48 -87 -102 -114 l-50
-25 -1229 0 c-913 0 -1240 3 -1269 12 -50 15 -111 76 -126 126 -17 57 -17
1468 0 1526 15 49 71 108 118 123 51 16 2478 17 2532 1z m1136 -1229 l-3 -341
-197 163 -198 164 0 355 0 355 198 164 197 163 3 -341 c1 -187 1 -495 0 -682z
m-3998 841 l0 -101 -97 3 -98 3 -3 84 c-2 46 -1 90 2 98 4 9 30 13 101 13 l95
0 0 -100z m3400 -500 l0 -300 -100 0 -100 0 0 300 0 300 100 0 100 0 0 -300z"/>
<path d="M3163 3842 c-251 -90 -272 -432 -35 -549 81 -40 183 -40 264 0 107
53 163 144 163 267 0 85 -21 142 -74 203 -72 81 -213 117 -318 79z m146 -196
c67 -35 65 -143 -4 -174 -91 -41 -179 51 -131 137 26 47 84 63 135 37z"/>
<path d="M1463 3742 c-251 -90 -272 -432 -35 -549 81 -40 183 -40 264 0 107
53 163 144 163 267 0 85 -21 142 -74 203 -72 81 -213 117 -318 79z m146 -196
c67 -35 65 -143 -4 -174 -51 -23 -107 -7 -131 39 -47 91 44 182 135 135z"/>
<path d="M1211 1746 c-67 -37 -65 -143 4 -174 37 -17 1053 -17 1090 0 29 13
55 55 55 88 0 33 -26 75 -55 88 -40 18 -1061 16 -1094 -2z"/>
<path d="M1211 1446 c-67 -37 -65 -143 4 -174 37 -17 1053 -17 1090 0 29 13
55 55 55 88 0 33 -26 75 -55 88 -40 18 -1061 16 -1094 -2z"/>
</g>
</svg>
