<?xml version="1.0" standalone="no"?>
<!DOCTYPE svg PUBLIC "-//W3C//DTD SVG 20010904//EN"
 "http://www.w3.org/TR/2001/REC-SVG-20010904/DTD/svg10.dtd">
<svg version="1.0" xmlns="http://www.w3.org/2000/svg"
 width="500.000000pt" height="500.000000pt" viewBox="0 0 500.000000 500.000000"
 preserveAspectRatio="xMidYMid meet">

<g transform="translate(0.000000,500.000000) scale(0.100000,-0.100000)"
fill="#000000" stroke="none">
<path d="M1105 2841 l-60 -6 -7 -90 c-14 -186 -27 -580 -19 -588 4 -4 46 -7
92 -5 l84 3 2 150 c0 83 6 234 13 337 7 102 9 191 5 197 -6 11 -11 11 -110 2z
m-9 -33 c-1 -7 -12 -31 -24 -53 l-22 -40 4 40 c3 22 5 46 6 53 0 6 9 12 19 12
11 0 18 -6 17 -12z m-33 -180 c-6 -110 -13 -113 -11 -5 1 48 5 87 9 87 4 0 5
-37 2 -82z"/>
<path d="M726 2828 c-88 -4 -161 -10 -163 -12 -7 -7 -32 -319 -39 -493 l-7
-173 87 0 86 0 0 104 0 104 43 10 c23 6 71 14 107 18 36 3 71 11 78 17 15 12
16 119 1 134 -7 7 -46 9 -115 5 l-104 -5 0 56 0 56 58 7 c31 4 93 12 137 18
l80 11 3 78 3 77 -48 -1 c-26 -1 -120 -6 -207 -11z"/>
<path d="M1265 2828 c-2 -7 -9 -121 -15 -253 -5 -132 -13 -282 -16 -334 l-7
-94 204 8 c118 4 209 11 217 17 9 8 12 35 10 92 l-3 81 -123 3 -124 3 9 127
c4 70 8 179 8 242 l0 115 -78 3 c-56 2 -78 -1 -82 -10z"/>
<path d="M2117 2833 c-15 -14 -6 -23 26 -24 32 -2 31 -2 -6 -8 l-38 -6 -56
-133 c-31 -73 -57 -131 -59 -129 -2 2 -17 50 -34 108 -46 156 -47 159 -84 160
-30 1 -30 1 -6 9 l25 7 -25 7 c-14 4 -53 6 -85 4 l-60 -3 -16 -330 c-9 -181
-14 -333 -12 -337 2 -5 42 -8 88 -8 66 0 84 3 89 16 3 9 6 57 7 107 l1 92 25
-73 c43 -125 94 -123 162 7 l40 76 -6 -112 -6 -113 92 0 91 0 0 305 c0 339 -2
353 -61 374 -36 12 -82 15 -92 4z m-309 -25 c-16 -5 -34 -6 -43 -1 -10 6 -2 9
28 10 38 1 40 0 15 -9z m-92 -536 c-14 -13 -18 11 -10 55 l9 48 3 -49 c2 -26
1 -51 -2 -54z m1 -99 c-3 -10 -5 -4 -5 12 0 17 2 24 5 18 2 -7 2 -21 0 -30z"/>
<path d="M2560 2830 c-63 -4 -136 -8 -161 -9 l-47 -1 -6 -52 c-10 -85 -25
-301 -32 -465 l-7 -153 87 0 86 0 0 104 0 104 43 10 c23 6 71 14 107 18 36 3
71 11 78 17 12 10 17 102 6 130 -5 13 -23 15 -115 10 l-109 -6 0 52 c0 35 4
53 14 57 8 3 70 13 138 22 l123 17 3 78 3 77 -48 -2 c-26 -1 -100 -5 -163 -8z"/>
<path d="M3561 2824 c-57 -7 -106 -16 -110 -19 -7 -8 -49 -625 -43 -643 3 -9
25 -12 81 -10 l76 3 3 101 c3 102 3 102 29 107 33 6 37 1 100 -120 26 -51 54
-93 61 -93 12 0 132 76 132 84 0 2 -23 47 -51 100 l-51 98 35 36 c117 120 90
326 -47 361 -54 13 -80 13 -215 -5z m150 -144 c59 -32 -28 -150 -110 -150 -19
0 -20 4 -15 63 4 34 9 65 13 69 5 6 64 25 84 27 5 1 17 -4 28 -9z"/>
<path d="M4132 2830 c-73 -3 -136 -10 -141 -16 -10 -11 -28 -242 -37 -488 l-7
-179 179 7 c98 3 203 9 232 12 l52 6 0 79 0 79 -143 0 -143 0 4 40 c2 22 9 40
16 40 22 1 208 28 211 32 7 8 11 107 4 103 -4 -3 -5 5 -1 17 5 21 4 21 -109
15 l-114 -6 3 40 c5 46 -3 43 165 60 89 9 120 15 124 27 4 8 7 42 7 76 l1 61
-85 1 c-47 1 -145 -2 -218 -6z"/>
</g>
</svg>
